<!--?xml version="1.0" encoding="utf-8"?-->
<!-- Generator: Adobe Illustrator 19.1.1, SVG Export Plug-In . SVG Version: 6.00 Build 0)  -->
<svg version="1.1" id="_x31_0" xmlns="http://www.w3.org/2000/svg" xmlns:xlink="http://www.w3.org/1999/xlink" x="0px" y="0px" viewBox="0 0 512 512" style="width: 256px; height: 256px; opacity: 1;" xml:space="preserve">
<style type="text/css">
	.st0{fill:#374149;}
</style>
<g>
	<path class="st0" d="M185.914,72.519c1.023-0.961,1.598-2.304,1.598-3.969c0-1.664-0.574-2.945-1.598-3.902
		c-1.09-0.962-2.562-1.473-4.481-1.473h-8.898V73.93h8.898C183.352,73.93,184.824,73.481,185.914,72.519z" style="fill: rgb(223, 86, 86);"></path>
	<path class="st0" d="M323.656,87.562c0.13,0.894,0.387,1.664,0.641,2.305c0.321,0.574,0.707,1.086,1.09,1.598
		c0.703,0.707,1.535,1.344,2.559,1.793c0.961,0.512,2.113,0.77,3.328,0.77c1.281,0,2.434-0.258,3.394-0.77
		c1.023-0.449,1.793-1.086,2.496-1.793c0.383-0.512,0.766-1.023,1.023-1.598c0.321-0.641,0.578-1.41,0.703-2.305
		c0.192-0.961,0.321-2.176,0.387-3.648c0.125-1.41,0.125-3.266,0.125-5.504c0-2.242,0-4.098-0.125-5.57
		c-0.066-1.406-0.195-2.625-0.387-3.586c-0.125-0.957-0.382-1.789-0.703-2.367c-0.258-0.574-0.64-1.086-1.023-1.598
		c-0.703-0.706-1.473-1.347-2.496-1.793c-0.961-0.449-2.114-0.703-3.394-0.703c-1.215,0-2.367,0.254-3.328,0.703
		c-1.024,0.446-1.856,1.086-2.559,1.793c-0.382,0.512-0.769,1.024-1.09,1.598c-0.254,0.578-0.511,1.41-0.641,2.367
		c-0.191,0.962-0.32,2.18-0.382,3.586c-0.062,1.473-0.062,3.328-0.062,5.57c0,2.238,0,4.094,0.062,5.504
		C323.336,85.386,323.465,86.602,323.656,87.562z" style="fill: rgb(223, 86, 86);"></path>
	<path class="st0" d="M182.07,82.121h-9.535v11.458h9.535c1.859,0,3.332-0.512,4.418-1.535c1.09-1.024,1.664-2.434,1.664-4.226
		c0-1.79-0.574-3.134-1.664-4.161C185.402,82.633,183.93,82.121,182.07,82.121z" style="fill: rgb(223, 86, 86);"></path>
	<path class="st0" d="M452.633,0H59.305C45.606,0,34.469,11.137,34.469,24.898v462.203c0,13.762,11.137,24.898,24.836,24.898
		h393.328c13.762,0,24.898-11.137,24.898-24.898V24.898C477.531,11.137,466.394,0,452.633,0z M103.086,73.93h41.734v8.191h-35.332
		L103.086,73.93z M192.297,76.774c-0.457,0.309-0.855,0.656-1.382,0.918c0.023,0.008,0.042,0.027,0.066,0.039
		c-0.051,0.031-0.086,0.07-0.141,0.102c0.898,0.45,1.602,0.898,2.113,1.218c0.45,0.383,0.962,0.766,1.41,1.278
		c1.023,1.09,1.726,2.242,2.176,3.586c0.512,1.281,0.703,2.816,0.703,4.418c0,2.11-0.321,3.902-0.961,5.566
		c-0.641,1.664-1.602,3.008-2.879,4.16c-1.215,1.219-2.754,2.114-4.481,2.688c-1.793,0.64-3.777,0.961-5.953,0.961h-19.523v-46.66
		h18.754c2.176,0,4.16,0.32,5.953,0.961c1.794,0.574,3.329,1.469,4.543,2.558c1.219,1.152,2.18,2.496,2.883,4.031
		c0.703,1.602,1.023,3.328,1.023,5.313C196.602,71.746,195.11,74.641,192.297,76.774z M206.523,101.707v-46.66h9.153v46.66H206.523z
		 M226.558,55.047h8.129l9.981,15.488l8.293,13.121V83.41l0.16,0.246V55.047h9.153v46.66h-8.129l-18.496-28.61v28.61h-9.09V55.172
		V55.047z M274.824,61.274c0.43-0.562,0.906-1.122,1.469-1.684c1.598-1.535,3.391-2.75,5.442-3.648
		c1.985-0.832,4.285-1.282,6.977-1.282c2.687,0,5.121,0.45,7.168,1.282c2.046,0.832,3.777,1.922,5.246,3.266
		c1.41,1.406,2.562,3.008,3.394,4.801c0.829,1.652,1.352,3.375,1.633,5.191c0.012,0.152,0.063,0.285,0.07,0.442h-9.129
		c-1.023-4.547-3.84-6.848-8.382-6.848c-1.282,0-2.371,0.254-3.328,0.703c-0.962,0.446-1.794,1.086-2.5,1.793
		c-0.446,0.512-0.766,1.024-1.086,1.598c-0.258,0.578-0.511,1.41-0.703,2.367c-0.129,0.962-0.258,2.18-0.32,3.586
		c-0.066,1.473-0.129,3.328-0.129,5.57c0,2.238,0.062,4.094,0.129,5.504c0.062,1.472,0.191,2.687,0.32,3.648
		c0.192,0.961,0.446,1.793,0.703,2.367c0.321,0.641,0.641,1.153,1.086,1.664c0.706,0.707,1.538,1.282,2.5,1.73
		c0.957,0.446,2.046,0.703,3.328,0.703c1.406,0,2.625-0.258,3.71-0.703c1.153-0.449,2.047-1.09,2.754-1.922
		c0.766-0.894,1.277-1.855,1.664-2.879c0.32-1.027,0.446-2.175,0.446-3.394v-1.5l0.003-0.004h-0.003v-0.16h-8.574v-7.68h17.602
		v6.786c0,3.39-0.258,6.145-0.898,8.32c-0.641,2.238-1.79,4.16-3.52,5.954c-1.984,2.046-4.031,3.39-6.207,4.16
		c-2.179,0.766-4.48,1.086-6.976,1.086c-2.692,0-4.992-0.382-6.977-1.277c-2.05-0.832-3.844-2.051-5.442-3.586
		c-1.218-1.214-2.113-2.434-2.754-3.71c-0.641-1.215-1.086-2.626-1.344-4.161c-0.32-1.472-0.511-3.137-0.578-4.93
		c-0.063-1.793-0.063-3.777-0.063-6.015c0-2.242,0-4.227,0.063-6.02c0.066-1.793,0.258-3.457,0.578-4.992
		c0.258-1.473,0.703-2.879,1.344-4.16c0.297-0.558,0.66-1.122,1.07-1.68C274.68,61.461,274.75,61.367,274.824,61.274z
		 M314.054,78.41c0-2.242,0.066-4.227,0.13-6.02c0.066-1.793,0.258-3.457,0.511-4.992c0.258-1.473,0.77-2.879,1.344-4.16
		c0.641-1.215,1.602-2.43,2.754-3.649c1.602-1.535,3.394-2.75,5.379-3.648c2.047-0.832,4.414-1.282,7.102-1.282
		c2.754,0,5.121,0.45,7.106,1.282c1.984,0.898,3.777,2.113,5.378,3.648c1.153,1.219,2.11,2.434,2.688,3.649
		c0.64,1.281,1.152,2.687,1.406,4.16c0.32,1.535,0.511,3.199,0.578,4.992c0.062,1.793,0.129,3.778,0.129,6.02
		c0,2.238-0.066,4.222-0.129,6.015c-0.066,1.793-0.258,3.458-0.578,4.93c-0.254,1.535-0.766,2.946-1.406,4.161
		c-0.578,1.277-1.535,2.496-2.688,3.71c-1.602,1.535-3.394,2.754-5.378,3.586c-1.985,0.894-4.352,1.277-7.106,1.277
		c-2.688,0-5.054-0.382-7.102-1.277c-1.985-0.832-3.778-2.051-5.379-3.586c-1.152-1.214-2.113-2.434-2.754-3.71
		c-0.574-1.215-1.086-2.626-1.344-4.161c-0.254-1.472-0.445-3.137-0.511-4.93C314.121,82.633,314.054,80.649,314.054,78.41z
		 M408.84,74.027l-6.324,8.094h-35.332V73.93h25.766L408.84,74.027z M66.473,473.145V129.742h379.054v343.402
		c0,3.777-3.07,6.851-6.847,6.851H73.324C69.547,479.996,66.473,476.922,66.473,473.145z" style="fill: rgb(223, 86, 86);"></path>
	<path class="st0" d="M220.414,236.539v0.16h71.175v-37.058c0-19.653-15.938-35.524-35.59-35.524
		c-12.481,0-23.488,6.399-29.828,16.13c-3.649,5.566-5.758,12.226-5.758,19.394v36.676V236.539L220.414,236.539z M256,176.918
		c12.547,0,22.789,10.176,22.789,22.723v24.258h-45.574v-24.258c0-4.418,1.281-8.707,3.648-12.418
		C241.086,180.758,248.258,176.918,256,176.918z" style="fill: rgb(223, 86, 86);"></path>
	<path class="st0" d="M220.414,442.422h71.175v-37.058c0-19.652-15.938-35.527-35.59-35.527c-12.481,0-23.488,6.402-29.828,16.133
		c-3.649,5.566-5.758,12.222-5.758,19.394v36.676v0.222l0,0V442.422z M256,382.637c12.547,0,22.789,10.242,22.789,22.726v24.258
		h-45.574v-24.258c0-4.418,1.281-8.707,3.648-12.418C241.086,386.543,248.258,382.637,256,382.637z" style="fill: rgb(223, 86, 86);"></path>
	<path class="st0" d="M323.274,339.562h71.176V302.5c0-19.649-15.938-35.523-35.586-35.523c-12.48,0-23.492,6.402-29.828,16.129
		c-3.649,5.57-5.762,12.226-5.762,19.394v36.789v0.114l0,0V339.562z M358.863,279.778c12.543,0,22.786,10.179,22.786,22.722v24.262
		h-45.574V302.5c0-4.414,1.281-8.703,3.714-12.418C343.95,283.617,351.118,279.778,358.863,279.778z" style="fill: rgb(223, 86, 86);"></path>
	<path class="st0" d="M323.274,236.539v0.16h71.176v-37.058c0-19.653-15.938-35.524-35.586-35.524
		c-12.48,0-23.492,6.399-29.828,16.13c-3.649,5.566-5.762,12.226-5.762,19.394v36.785V236.539L323.274,236.539z M358.863,176.918
		c12.543,0,22.786,10.176,22.786,22.723v24.258h-45.574v-24.258c0-4.418,1.281-8.707,3.714-12.418
		C343.95,180.758,351.118,176.918,358.863,176.918z" style="fill: rgb(223, 86, 86);"></path>
	<path class="st0" d="M188.73,302.5c0-19.649-15.942-35.523-35.59-35.523c-12.481,0-23.492,6.402-29.828,16.129
		c-3.649,5.57-5.762,12.226-5.762,19.394v37.062h71.179V302.5z M153.141,279.778c12.546,0,22.785,10.179,22.785,22.722v24.262
		h-45.574V302.5c0-4.414,1.218-8.703,3.648-12.418C138.226,283.617,145.332,279.778,153.141,279.778z" style="fill: rgb(223, 86, 86);"></path>
	<path class="st0" d="M188.73,405.363c0-19.652-15.942-35.527-35.59-35.527c-12.481,0-23.492,6.402-29.828,16.133
		c-3.649,5.566-5.762,12.222-5.762,19.394v37.058h71.179V405.363z M153.141,382.637c12.546,0,22.785,10.242,22.785,22.726v24.258
		h-45.574v-24.258c0-4.418,1.218-8.707,3.648-12.418C138.226,386.543,145.332,382.637,153.141,382.637z" style="fill: rgb(223, 86, 86);"></path>
	<path class="st0" d="M188.664,199.703c0-19.649-15.875-35.586-35.523-35.586c-19.012,0-34.562,14.91-35.461,33.731
		c-0.129,0.578-0.129,1.214-0.129,1.855v36.996h71.113V199.703z M136.754,217.496v-17.793c0-0.383,0-0.703,0.066-1.086l32.641,16.13
		v2.75H136.754z" style="fill: rgb(223, 86, 86);"></path>
	<path class="st0" d="M220.414,339.562h71.113v-36.996c0-19.652-15.875-35.59-35.527-35.59c-19.008,0-34.562,14.914-35.461,33.73
		c-0.125,0.578-0.125,1.218-0.125,1.859v36.61v0.226l0,0V339.562z M239.618,320.359v-17.793c0-0.386,0-0.707,0.062-1.09
		l32.644,16.129v2.754H239.618z" style="fill: rgb(223, 86, 86);"></path>
	<path class="st0" d="M358.926,369.836c-19.011,0-34.562,14.914-35.461,33.734c-0.129,0.574-0.129,1.214-0.129,1.855v36.996h71.114
		v-36.996C394.45,385.778,378.578,369.836,358.926,369.836z M375.25,420.469v2.75h-32.711v-17.793c0-0.382,0-0.703,0.066-1.09
		L375.25,420.469z" style="fill: rgb(223, 86, 86);"></path>
</g>
</svg>
